<svg width="512" height="512" viewBox="0 0 512 512" fill="none" xmlns="http://www.w3.org/2000/svg">
<g clip-path="url(#clip0_495_2)">
<rect width="512" height="512" fill="white"/>
<rect width="512" height="512" fill="url(#paint0_linear_495_2)"/>
<path fill-rule="evenodd" clip-rule="evenodd" d="M135.012 99.8761C175.073 93.9959 215.51 91.0502 256 91.0625C297.107 91.0625 337.488 94.0737 376.988 99.8592C410.449 104.799 433.625 134.099 433.625 167.018V268.857C433.625 301.777 410.449 331.076 376.988 336.016C357.471 338.876 337.857 341.037 318.186 342.495C317.185 342.561 316.212 342.854 315.341 343.352C314.471 343.851 313.725 344.541 313.161 345.371L266.556 415.287C265.397 417.025 263.828 418.45 261.986 419.435C260.145 420.421 258.089 420.936 256 420.936C253.911 420.936 251.855 420.421 250.014 419.435C248.172 418.45 246.603 417.025 245.444 415.287L198.839 345.371C198.275 344.541 197.529 343.851 196.659 343.352C195.788 342.854 194.815 342.561 193.814 342.495C174.142 341.031 154.529 338.865 135.012 335.999C101.551 331.093 78.375 301.76 78.375 268.84V167.035C78.375 134.115 101.551 104.782 135.012 99.8761ZM167.187 192.563C167.187 189.198 168.524 185.97 170.904 183.591C173.283 181.212 176.51 179.875 179.875 179.875H332.125C335.49 179.875 338.717 181.212 341.096 183.591C343.476 185.97 344.812 189.198 344.812 192.563C344.812 195.927 343.476 199.155 341.096 201.534C338.717 203.913 335.49 205.25 332.125 205.25H179.875C176.51 205.25 173.283 203.913 170.904 201.534C168.524 199.155 167.187 195.927 167.187 192.563ZM179.875 230.625C176.51 230.625 173.283 231.962 170.904 234.341C168.524 236.721 167.187 239.948 167.187 243.313C167.187 246.677 168.524 249.905 170.904 252.284C173.283 254.663 176.51 256 179.875 256H256C259.365 256 262.592 254.663 264.971 252.284C267.351 249.905 268.687 246.677 268.687 243.313C268.687 239.948 267.351 236.721 264.971 234.341C262.592 231.962 259.365 230.625 256 230.625H179.875Z" fill="white"/>
</g>
<defs>
<linearGradient id="paint0_linear_495_2" x1="256" y1="0" x2="256" y2="512" gradientUnits="userSpaceOnUse">
<stop stop-color="#A163ED"/>
<stop offset="1" stop-color="#D74D9E"/>
</linearGradient>
<clipPath id="clip0_495_2">
<rect width="512" height="512" fill="white"/>
</clipPath>
</defs>
</svg>
